<svg width="48" height="14" viewBox="0 0 48 14" fill="none" xmlns="http://www.w3.org/2000/svg">
<g clip-path="url(#clip0_312_331)">
<path d="M6.22956 0.580078H2.52956C2.27956 0.580078 2.05956 0.770078 2.01956 1.02008L0.529555 10.6301C0.519555 10.7201 0.539555 10.8101 0.599555 10.8801C0.659555 10.9501 0.739555 10.9901 0.829555 10.9901H2.58956C2.83956 10.9901 3.05956 10.8001 3.09956 10.5501L3.49956 7.96008C3.53956 7.71008 3.74956 7.52008 4.00956 7.52008H5.17956C7.60956 7.52008 9.01956 6.33008 9.37956 3.96008C9.54956 2.92008 9.37956 2.11008 8.90956 1.54008C8.38956 0.910078 7.45956 0.580078 6.22956 0.580078ZM6.65956 4.09008C6.45956 5.43008 5.44956 5.43008 4.46956 5.43008H3.90956L4.29956 2.92008C4.31956 2.77008 4.44956 2.66008 4.59956 2.66008H4.85956C5.52956 2.66008 6.15955 2.66008 6.47956 3.05008C6.66956 3.28008 6.72956 3.62008 6.65956 4.09008ZM17.2696 4.05008H15.4996C15.3496 4.05008 15.2196 4.16008 15.1996 4.31008L15.1196 4.81008L14.9996 4.63008C14.6196 4.07008 13.7596 3.88008 12.9096 3.88008C10.9596 3.88008 9.28956 5.38008 8.95956 7.49008C8.78956 8.54008 9.02956 9.55008 9.61956 10.2501C10.1596 10.8901 10.9296 11.1601 11.8496 11.1601C13.4196 11.1601 14.2996 10.1301 14.2996 10.1301L14.2196 10.6301C14.2096 10.7201 14.2296 10.8101 14.2896 10.8801C14.3496 10.9501 14.4296 10.9901 14.5196 10.9901H16.1096C16.3596 10.9901 16.5796 10.8001 16.6196 10.5501L17.5796 4.41008C17.5896 4.32008 17.5696 4.23008 17.5096 4.16008C17.4496 4.09008 17.3696 4.05008 17.2796 4.05008H17.2696ZM14.8096 7.54008C14.6396 8.57008 13.8396 9.25008 12.8196 9.25008C12.3096 9.25008 11.8996 9.08008 11.6296 8.77008C11.3696 8.46008 11.2696 8.01008 11.3496 7.51008C11.5096 6.49008 12.3196 5.78008 13.3296 5.78008C13.8296 5.78008 14.2396 5.95008 14.5096 6.27008C14.7796 6.59008 14.8896 7.04008 14.8096 7.54008ZM26.6896 4.05008H24.9096C24.7396 4.05008 24.5796 4.14008 24.4896 4.28008L22.0396 7.94008L20.9996 4.42008C20.9296 4.20008 20.7296 4.05008 20.5096 4.05008H18.7596C18.6596 4.05008 18.5696 4.10008 18.5096 4.18008C18.4496 4.26008 18.4396 4.37008 18.4696 4.46008L20.4296 10.2901L18.5896 12.9301C18.5196 13.0301 18.5096 13.1501 18.5696 13.2501C18.6296 13.3501 18.7296 13.4201 18.8396 13.4201H20.6096C20.7796 13.4201 20.9396 13.3401 21.0296 13.2001L26.9296 4.54008C26.9996 4.44008 26.9996 4.32008 26.9496 4.22008C26.8996 4.12008 26.7896 4.05008 26.6796 4.05008H26.6896Z" fill="#253B80"/>
<path d="M32.5594 0.580078H28.8694C28.6194 0.580078 28.3994 0.770078 28.3594 1.02008L26.8694 10.6301C26.8594 10.7201 26.8794 10.8101 26.9394 10.8801C26.9994 10.9501 27.0794 10.9901 27.1694 10.9901H29.0694C29.2494 10.9901 29.3994 10.8601 29.4194 10.6801L29.8394 7.96008C29.8794 7.71008 30.0894 7.52008 30.3494 7.52008H31.5194C33.9494 7.52008 35.3594 6.33008 35.7194 3.96008C35.8894 2.92008 35.7194 2.11008 35.2494 1.54008C34.7294 0.910078 33.7994 0.580078 32.5594 0.580078ZM32.9894 4.09008C32.7894 5.43008 31.7794 5.43008 30.7994 5.43008H30.2394L30.6294 2.92008C30.6494 2.77008 30.7794 2.66008 30.9294 2.66008H31.1894C31.8594 2.66008 32.4894 2.66008 32.8094 3.05008C32.9994 3.28008 33.0594 3.62008 32.9894 4.09008ZM43.5994 4.05008H41.8294C41.6794 4.05008 41.5494 4.16008 41.5294 4.31008L41.4494 4.81008L41.3294 4.63008C40.9494 4.07008 40.0894 3.88008 39.2394 3.88008C37.2894 3.88008 35.6194 5.38008 35.2894 7.49008C35.1194 8.54008 35.3594 9.55008 35.9494 10.2501C36.4894 10.8901 37.2594 11.1601 38.1794 11.1601C39.7494 11.1601 40.6294 10.1301 40.6294 10.1301L40.5494 10.6301C40.5394 10.7201 40.5594 10.8101 40.6194 10.8801C40.6794 10.9501 40.7594 10.9901 40.8494 10.9901H42.4394C42.6894 10.9901 42.9094 10.8001 42.9494 10.5501L43.9094 4.41008C43.9194 4.32008 43.8994 4.23008 43.8394 4.16008C43.7794 4.09008 43.6994 4.05008 43.6094 4.05008H43.5994ZM41.1394 7.54008C40.9694 8.57008 40.1694 9.25008 39.1494 9.25008C38.6394 9.25008 38.2294 9.08008 37.9594 8.77008C37.6994 8.46008 37.5994 8.01008 37.6794 7.51008C37.8394 6.49008 38.6494 5.78008 39.6594 5.78008C40.1594 5.78008 40.5694 5.95008 40.8394 6.27008C41.1094 6.59008 41.2194 7.04008 41.1394 7.54008ZM45.6794 0.840078L44.1594 10.6301C44.1494 10.7201 44.1694 10.8101 44.2294 10.8801C44.2894 10.9501 44.3694 10.9901 44.4594 10.9901H45.9794C46.2294 10.9901 46.4494 10.8001 46.4894 10.5501L47.9994 0.940078C48.0094 0.850078 47.9894 0.760078 47.9294 0.690078C47.8694 0.620078 47.7894 0.580078 47.6994 0.580078H45.9894C45.8394 0.580078 45.7094 0.690078 45.6894 0.840078H45.6794Z" fill="#179BD7"/>
</g>
<defs>
<clipPath id="clip0_312_331">
<rect width="47.47" height="12.84" fill="white" transform="translate(0.530029 0.580078)"/>
</clipPath>
</defs>
</svg>
